<svg id="logo-footer" height="75px" xmlns="http://www.w3.org/2000/svg" xmlns:xlink="http://www.w3.org/1999/xlink"
     viewBox="0 0 625 150">
    <g class="mobro-logo__container">
        <path style="fill:#D80F16;" d="M135,3h-32.4c-2.1,0-3.9,0.5-5.3,1.4S94.6,6.9,93.4,9L75.6,41.6c-0.7,1.2-1.2,2.1-1.7,2.6
		C73.4,44.7,72.8,45,72,45h-1.8c-0.8,0-1.4-0.3-1.9-0.8s-1-1.4-1.7-2.6L48.6,9c-1.2-2.1-2.5-3.7-3.9-4.6C43.3,3.5,41.5,3,39.4,3
		H7.2C4.7,3,2.8,3.6,1.7,4.7S0,7.7,0,10.2v129.6c0,2.5,0.6,4.4,1.7,5.5s3,1.7,5.5,1.7H37c2.5,0,4.4-0.6,5.5-1.7
		c1.1-1.1,1.7-3,1.7-5.5V69.4L56,91.2c1.2,2.3,2.6,3.9,4.3,4.9s3.8,1.5,6.3,1.5h8c2.5,0,4.6-0.5,6.3-1.5c1.7-1,3.1-2.6,4.3-4.9
		L97,69.4v70.4c0,2.5,0.6,4.4,1.7,5.5s3,1.7,5.5,1.7H135c2.5,0,4.4-0.6,5.5-1.7c1.1-1.1,1.7-3,1.7-5.5V10.2c0-2.5-0.6-4.4-1.7-5.5
		C139.4,3.6,137.5,3,135,3z"/>
        <path style="fill:#D80F16;" d="M260.5,3c-8.1-2-18.3-3-30.7-3S207.1,1,199,3s-14.5,4.8-19.1,8.4s-7.8,7.9-9.6,12.9
		s-2.7,10.6-2.7,16.7v68.2c0,6.1,0.9,11.7,2.7,16.7c1.8,5,5,9.3,9.6,12.8s11,6.3,19.1,8.3s18.4,3,30.8,3c12.4,0,22.6-1,30.7-3
		c8.1-2,14.4-4.8,19-8.3s7.8-7.8,9.6-12.8L262,3.4C261.5,3.3,261,3.1,260.5,3z M246.6,102c0,2.7-1,4.9-3,6.7
		c-2,1.8-6.6,2.7-13.8,2.7s-11.8-0.9-13.8-2.7c-2-1.8-3-4-3-6.7V48.2c0-2.5,1-4.7,3-6.5s6.6-2.7,13.8-2.7s11.8,0.9,13.8,2.7
		s3,4,3,6.5V102z"/>
        <path style="fill:#FFFFFF;" d="M368,66.7c3.2-1.4,5.6-3.5,7.2-6.4s2.4-6.6,2.4-11.1v-7.8c0-8.4-2.5-14.7-7.6-18.7c-5.1-4.1-12.9-6.1-23.5-6.1h-51.7
		c-2.1,0-3.5,0.5-4.5,1.4c-0.6,0.6-1,1.4-1.2,2.5l25,112.9H357c10.7,0,18.6-2.2,23.8-6.5c5.1-4.3,7.7-11,7.7-20.1V91.9
		c0-7.9-1.7-13.9-5-18C380.1,69.8,374.9,67.4,368,66.7z M325.4,44.2h13.8c2.1,0,3.6,0.5,4.6,1.6s1.5,2.7,1.5,4.9v4.5
		c0,2.2-0.5,3.8-1.5,4.9c-1,1.1-2.6,1.6-4.6,1.6h-13.8V44.2z M352.6,99.3c0,2.2-0.5,3.8-1.5,4.9s-2.6,1.6-4.6,1.6h-21.1V86.7h21.1
		c2.1,0,3.6,0.5,4.6,1.5s1.5,2.6,1.5,4.8V99.3z"/>
        <path style="fill:#FFFFFF;" d="M489.1,69.7c3.3-1.4,5.7-3.7,7.1-6.9c1.4-3.2,2-7.1,2-11.6v-7.5c0-8-2.3-14.5-6.9-19.5s-12.9-7.5-25-7.5h-54
		c-2.1,0-3.5,0.5-4.5,1.4c-0.9,0.9-1.4,2.4-1.4,4.5v105.1c0,2.1,0.5,3.5,1.4,4.5c0.9,0.9,2.4,1.4,4.5,1.4h25
		c2.1,0,3.5-0.5,4.5-1.4c0.9-0.9,1.4-2.4,1.4-4.5V95.8h22.7c2.3,0,3.9,0.6,4.8,1.7s1.4,2.9,1.4,5.3v24.8c0,2.1,0.5,3.5,1.4,4.5
		c0.9,0.9,2.4,1.4,4.5,1.4h25.1c2.1,0,3.5-0.5,4.5-1.4c0.9-0.9,1.4-2.4,1.4-4.5V93.2c0-6.8-1.8-12.3-5.4-16.4
		C499.7,72.7,495,70.3,489.1,69.7z M462.4,59c0,2.2-0.5,4-1.5,5.4c-1,1.5-2.9,2.2-5.7,2.2H443V45.8h12.2c2.8,0,4.7,0.7,5.7,2.2
		s1.5,3.3,1.5,5.4V59z"/>
        <path style="fill:#FFFFFF;" d="M622.8,33.9c-1.5-4.1-4.1-7.5-7.8-10.5c-3.7-2.9-8.9-5.2-15.4-6.8c-6.5-1.6-14.8-2.4-24.9-2.4c-10.1,0-18.4,0.8-25,2.4
		s-11.8,3.9-15.5,6.8s-6.3,6.4-7.8,10.5s-2.2,8.6-2.2,13.5v55.3c0,5,0.7,9.5,2.2,13.5c1.5,4.1,4.1,7.5,7.8,10.4
		c3.7,2.9,8.9,5.1,15.5,6.7s14.9,2.4,25,2.4s18.3-0.8,24.9-2.4c6.5-1.6,11.7-3.9,15.4-6.7c3.7-2.9,6.3-6.3,7.8-10.4
		s2.2-8.6,2.2-13.5V47.4C625,42.5,624.2,38,622.8,33.9z M588.3,96.9c0,2.2-0.8,4-2.4,5.4c-1.6,1.5-5.3,2.2-11.2,2.2
		c-5.8,0-9.6-0.7-11.2-2.2c-1.6-1.5-2.4-3.3-2.4-5.4V53.3c0-2.1,0.8-3.8,2.4-5.3c1.6-1.5,5.3-2.2,11.2-2.2c5.8,0,9.6,0.7,11.2,2.2
		c1.6,1.5,2.4,3.2,2.4,5.3V96.9z"/>
    </g>
</svg>