<svg id="Layer_1" data-name="Layer 1" xmlns="http://www.w3.org/2000/svg" xmlns:xlink="http://www.w3.org/1999/xlink" viewBox="0 0 500 500"><defs><style>.cls-1{fill:url(#New_Gradient_Swatch);}.cls-2{fill:#fff;}</style><linearGradient id="New_Gradient_Swatch" y1="250" x2="500" y2="250" gradientUnits="userSpaceOnUse"><stop offset="0" stop-color="#f74a2c"/><stop offset="1" stop-color="#b6075f"/></linearGradient></defs><title>ModBros</title><circle class="cls-1" cx="250" cy="250" r="250"/><path class="cls-2" d="M250,29.06A221.21,221.21,0,0,0,111.1,78.15a24.45,24.45,0,1,0,13.21,21.71,24.76,24.76,0,0,0-1.49-8.43A203.41,203.41,0,0,1,250.06,46.7c112.11,0,203.3,91.19,203.3,203.3A201.53,201.53,0,0,1,414,370.25l14.23,10.46A219.32,219.32,0,0,0,471,250C470.94,128.14,371.86,29.06,250,29.06ZM99.86,110.74a10.88,10.88,0,1,1,10.88-10.88A10.88,10.88,0,0,1,99.86,110.74Z"/><path class="cls-2" d="M400,375.51A24.49,24.49,0,0,0,375.51,400a25.12,25.12,0,0,0,1.61,8.73A203.5,203.5,0,0,1,250,453.36c-112.11,0-203.3-91.19-203.3-203.3A202,202,0,0,1,86.22,129.57L72,119.11A219.26,219.26,0,0,0,29,250.06C29,371.86,128.14,471,249.94,471a221,221,0,0,0,139-49.21,24,24,0,0,0,10.94,2.63,24.46,24.46,0,0,0,.12-48.91Zm0,35.28a10.88,10.88,0,1,1,10.88-10.88A10.88,10.88,0,0,1,400,410.79Z"/><path class="cls-2" d="M260.34,161.92H341.6c14.41,0,26.79,5.32,37.85,16.2,10.82,10.7,16,22.78,16,37v.66c-.18,14.35-3.83,24.93-10.76,31.45l-2.81,2.63,2.75,2.75c7.29,7.24,11,17.76,11,31.33v.84c-.18,14.29-5.62,26.61-16.56,37.61S356.37,338.67,343,338.67H227.4a3.71,3.71,0,0,1-2.63-6.34L256,301.12a3.71,3.71,0,0,1,2.63-1.08h82.7c9.81,0,15.43-5.5,15.43-15.13,0-9.81-5.5-15.43-15.07-15.43l-11.42-.12c-6.58,0-11.48-1.61-14.59-4.72-3.29-3.29-4.9-8.55-4.84-15.73,0-6.1,1.49-10.64,4.48-13.51s7.83-4.36,14.29-4.36h.54l11.6.12c4.66,0,8.37-1.32,10.94-4,2.75-2.81,4.13-7,4-12.38.12-4.19-1-7.53-3.41-10-2.57-2.63-6.46-4-11.54-4H272.18a3.8,3.8,0,0,0-2.69,1.14h0c-10.28,10.52-32.83,33.25-47.78,48.31-7.71,7.77-13.27,13.39-14.59,14.71-3,3.11-7.89,4.72-14.41,4.72s-11.12-1.61-14.35-4.84c-3.95-3.95-13.69-13.75-29-29.06l-3.47-3.47a1.68,1.68,0,0,0-2.87,1.2v85.86c-.06,13.27-6,19.25-19.37,19.37h-.24c-6.58,0-11.42-1.55-14.47-4.6s-4.6-8-4.54-14.71V181.12c0-13.27,5.92-19.19,19.13-19.19,6.7.18,11.66,1.79,14.59,4.78,3.65,3.71,20.27,20.27,52.26,52.2l2.63,2.63,2.63-2.63c30.61-30.61,48.07-48.13,51.9-52.14,3.11-3.11,6-4.84,12.8-4.84"/></svg>